HIERARCHY
ROOT joint_Root
{
	OFFSET 0.0 0.0 0.0
	CHANNELS 6 Xposition Yposition Zposition Zrotation Xrotation Yrotation 
	JOINT Hips
	{
		OFFSET -17.1583 93.1646 452.98
		CHANNELS 6 Xposition Yposition Zposition Zrotation Xrotation Yrotation 
		JOINT Spine
		{
			OFFSET 15.7357 0.0 0.0
			CHANNELS 6 Xposition Yposition Zposition Zrotation Xrotation Yrotation 
			JOINT Chest
			{
				OFFSET 8.98455 -0.406207 0.0
				CHANNELS 6 Xposition Yposition Zposition Zrotation Xrotation Yrotation 
				JOINT Neck
				{
					OFFSET 16.3773 0.0 0.0
					CHANNELS 6 Xposition Yposition Zposition Zrotation Xrotation Yrotation 
					JOINT Head
					{
						OFFSET 6.45672 0.0 0.0
						CHANNELS 6 Xposition Yposition Zposition Zrotation Xrotation Yrotation 
						End Site
						{
							OFFSET 0.0 0.0 0.0
						}
					}
				}
				JOINT Shoulder_L
				{
					OFFSET 12.9942 -0.242716 4.98039
					CHANNELS 6 Xposition Yposition Zposition Zrotation Xrotation Yrotation 
					JOINT UpperArm_L
					{
						OFFSET 5.34809 0.0 0.0
						CHANNELS 6 Xposition Yposition Zposition Zrotation Xrotation Yrotation 
						JOINT LowerArm_L
						{
							OFFSET 24.3286 1.87007e-05 0.0
							CHANNELS 6 Xposition Yposition Zposition Zrotation Xrotation Yrotation 
							JOINT Hand_L
							{
								OFFSET 22.2916 0.0 0.0
								CHANNELS 6 Xposition Yposition Zposition Zrotation Xrotation Yrotation 
								End Site
								{
									OFFSET 0.0 0.0 0.0
								}
							}
						}
					}
				}
				JOINT Shoulder_R
				{
					OFFSET 12.9945 -0.242716 -4.98039
					CHANNELS 6 Xposition Yposition Zposition Zrotation Xrotation Yrotation 
					JOINT UpperArm_R
					{
						OFFSET -5.34813 0.0 0.0
						CHANNELS 6 Xposition Yposition Zposition Zrotation Xrotation Yrotation 
						JOINT LowerArm_R
						{
							OFFSET -24.3289 0.000322201 0.0
							CHANNELS 6 Xposition Yposition Zposition Zrotation Xrotation Yrotation 
							JOINT Hand_R
							{
								OFFSET -22.2915 -0.000108084 0.0
								CHANNELS 6 Xposition Yposition Zposition Zrotation Xrotation Yrotation 
								End Site
								{
									OFFSET 0.0 0.0 0.0
								}
							}
						}
					}
				}
			}
		}
		JOINT UpperLeg_L
		{
			OFFSET -2.19248 -6.46944 0.0
			CHANNELS 6 Xposition Yposition Zposition Zrotation Xrotation Yrotation 
			JOINT LowerLeg_L
			{
				OFFSET 39.0811 0.0 -1.23785e-05
				CHANNELS 6 Xposition Yposition Zposition Zrotation Xrotation Yrotation 
				JOINT Foot_L
				{
					OFFSET 40.9854 0.0 -1.26872e-05
					CHANNELS 6 Xposition Yposition Zposition Zrotation Xrotation Yrotation 
					JOINT Toes_L
					{
						OFFSET 11.7543 0.0 0.0
						CHANNELS 6 Xposition Yposition Zposition Zrotation Xrotation Yrotation 
						End Site
						{
							OFFSET 0.0 0.0 0.0
						}
					}
				}
			}
		}
		JOINT UpperLeg_R
		{
			OFFSET -2.19251 6.46944 0.0
			CHANNELS 6 Xposition Yposition Zposition Zrotation Xrotation Yrotation 
			JOINT LowerLeg_R
			{
				OFFSET -39.0811 -0.00228153 -0.0401928
				CHANNELS 6 Xposition Yposition Zposition Zrotation Xrotation Yrotation 
				JOINT Foot_R
				{
					OFFSET -40.9854 0.0 0.0
					CHANNELS 6 Xposition Yposition Zposition Zrotation Xrotation Yrotation 
					JOINT Toes_R
					{
						OFFSET -11.7543 0.0 0.0
						CHANNELS 6 Xposition Yposition Zposition Zrotation Xrotation Yrotation 
						End Site
						{
							OFFSET 0.0 0.0 0.0
						}
					}
				}
			}
		}
	}
}
MOTION
Frames:	5
Frame Time:	0.0333333
0.000000 0.000000 0.000000 0.000000 0.000000 -0.000000 -5.665920 89.669700 461.118000 -88.490800 11.063800 175.647000 15.735700 0.000005 -0.000001 148.088000 85.240000 -147.616000 8.984550 -0.406207 -0.000000 -2.778450 8.034830 1.140360 16.377300 -0.000001 -0.000001 -2.920710 3.303470 -0.836080 6.456720 -0.000001 -0.000000 6.055560 1.272310 0.704673 12.994200 -0.242716 4.980390 -92.560200 6.328160 -67.919100 5.348090 -0.000007 -0.000001 -36.428800 -19.661500 26.677400 24.328600 0.000019 0.000005 0.786396 10.413600 -4.341120 22.291600 -0.000001 0.000005 25.020500 4.408140 18.078500 12.994500 -0.242716 -4.980390 89.364900 2.649310 -76.514200 -5.348130 -0.000001 -0.000004 -61.563300 11.871400 -27.664600 -24.328900 0.000322 -0.000009 -1.619280 -1.078070 -56.336000 -22.291500 -0.000108 -0.000004 10.928600 5.395700 -2.797370 -2.192480 -6.469440 -0.000000 -178.910000 -9.129220 -28.730300 39.081100 -0.000007 -0.000012 0.003054 -0.024064 7.235410 40.985400 -0.000006 -0.000013 -2.218680 7.707130 -64.394900 11.754300 -0.000000 0.000003 0.002259 0.058415 -14.207400 -2.192510 6.469440 -0.000001 178.373000 8.079530 -170.586000 -39.081100 -0.002282 -0.040193 -0.030072 0.098958 18.648400 -40.985400 0.000008 0.000006 -4.123800 14.363700 -68.748100 -11.754300 -0.000006 -0.000006 -0.005590 -0.067064 -19.302200
0.000000 0.000000 0.000000 0.000000 0.000000 -0.000000 -5.941760 88.764500 456.061000 -89.612400 10.176700 174.449000 15.735700 0.000005 -0.000001 155.519000 85.805600 -155.441000 8.984550 -0.406207 -0.000000 -4.314700 7.620570 0.443631 16.377300 -0.000001 -0.000001 -3.236280 3.155440 -0.641419 6.456720 -0.000001 -0.000000 6.221420 1.222160 0.919449 12.994200 -0.242716 4.980390 -92.690000 6.815870 -68.402200 5.348090 -0.000007 -0.000001 -36.209900 -20.501900 25.716700 24.328600 0.000019 0.000005 0.441094 7.292380 -3.470630 22.291600 -0.000001 0.000005 32.324900 4.107920 22.668200 12.994500 -0.242716 -4.980390 89.201800 3.322030 -76.482300 -5.348130 -0.000001 -0.000004 -64.153100 11.067200 -23.442500 -24.328900 0.000322 -0.000009 -0.437978 -0.272271 -58.058000 -22.291500 -0.000108 -0.000004 12.321500 5.429700 -3.927440 -2.192480 -6.469440 -0.000000 178.802000 -8.148910 -35.303500 39.081100 -0.000007 -0.000012 0.058549 -0.165746 19.455700 40.985400 -0.000006 -0.000013 -1.445790 10.367200 -61.730000 11.754300 -0.000000 0.000003 0.001597 0.033646 -15.211900 -2.192510 6.469440 -0.000001 176.616000 7.982340 -170.603000 -39.081100 -0.002282 -0.040193 -0.023956 0.068887 21.599900 -40.985400 0.000008 0.000006 -4.198090 13.561100 -67.531900 -11.754300 -0.000006 -0.000006 -0.027418 -0.205377 -24.981000
0.000000 0.000000 0.000000 0.000000 0.000000 -0.000000 -6.277680 88.134200 450.550000 -91.218800 8.708970 172.706000 15.735700 0.000005 -0.000001 173.656000 86.440500 -174.247000 8.984550 -0.406207 -0.000000 -6.973310 7.136950 -0.748996 16.377300 -0.000001 -0.000001 -3.152670 2.691590 -0.305605 6.456720 -0.000001 -0.000000 7.317560 0.935248 1.916280 12.994200 -0.242716 4.980390 -92.746300 6.876590 -68.167200 5.348090 -0.000007 -0.000001 -37.082600 -21.853400 23.864100 24.328600 0.000019 0.000005 0.466519 6.630370 -4.033780 22.291600 -0.000001 0.000005 34.195600 4.072270 23.187800 12.994500 -0.242716 -4.980390 88.959000 4.110020 -75.774400 -5.348130 -0.000001 -0.000004 -67.407100 10.615000 -16.111400 -24.328900 0.000322 -0.000009 -0.229867 -0.140296 -58.455700 -22.291500 -0.000108 -0.000004 12.849700 5.476150 -5.602800 -2.192480 -6.469440 -0.000000 176.414000 -5.557540 -39.833700 39.081100 -0.000007 -0.000012 0.117788 -0.223710 27.767800 40.985400 -0.000006 -0.000013 1.114370 11.568500 -55.591000 11.754300 -0.000000 0.000003 0.002204 0.055531 -14.324300 -2.192510 6.469440 -0.000001 175.131000 7.369240 -172.097000 -39.081100 -0.002282 -0.040193 0.005716 -0.005022 25.588000 -40.985400 0.000008 0.000006 -4.266170 11.362400 -63.094800 -11.754300 -0.000006 -0.000006 -0.090052 -0.419173 -34.022000
0.000000 0.000000 0.000000 0.000000 0.000000 -0.000000 -6.620230 87.723100 444.701000 -93.157600 6.549720 172.770000 15.735700 0.000005 -0.000001 -174.259000 86.805800 172.889000 8.984550 -0.406207 -0.000000 -8.357110 6.529700 -2.269790 16.377300 -0.000001 -0.000001 -3.060760 1.952070 -0.294511 6.456720 -0.000001 -0.000000 8.313880 0.294132 3.273050 12.994200 -0.242716 4.980390 -93.053900 7.540770 -67.876200 5.348090 -0.000007 -0.000001 -39.579800 -20.924400 20.629600 24.328600 0.000019 0.000005 0.484734 5.392220 -5.144010 22.291600 -0.000001 0.000005 27.086300 4.342440 19.116700 12.994500 -0.242716 -4.980390 88.745100 4.813390 -75.369400 -5.348130 -0.000001 -0.000004 -71.141000 8.261810 -7.349150 -24.328900 0.000322 -0.000009 0.675660 0.448031 -56.505900 -22.291500 -0.000108 -0.000004 11.167800 5.494300 -6.305050 -2.192480 -6.469440 -0.000000 175.205000 -0.356802 -40.063700 39.081100 -0.000007 -0.000012 0.231615 -0.336388 34.548900 40.985400 -0.000006 -0.000013 2.557200 9.411430 -57.597900 11.754300 -0.000000 0.000003 0.002464 0.091931 -12.848600 -2.192510 6.469440 -0.000001 173.919000 6.130570 -173.407000 -39.081100 -0.002282 -0.040193 0.054769 -0.083258 31.724600 -40.985400 0.000008 0.000006 -3.656850 7.531470 -55.393900 -11.754300 -0.000006 -0.000006 -0.164106 -0.581857 -41.273500
0.000000 0.000000 0.000000 0.000000 0.000000 -0.000000 -6.930930 87.521900 438.855000 -94.300100 4.930710 174.982000 15.735700 0.000005 -0.000001 -179.862000 86.873700 177.987000 8.984550 -0.406207 -0.000000 -7.700310 6.489440 -3.323770 16.377300 -0.000001 -0.000001 -2.956250 1.012650 -0.325171 6.456720 -0.000001 -0.000000 8.307110 -0.399826 4.226080 12.994200 -0.242716 4.980390 -93.512700 8.625450 -67.740700 5.348090 -0.000007 -0.000001 -43.601100 -19.512200 15.705100 24.328600 0.000019 0.000005 0.736533 6.614290 -6.367360 22.291600 -0.000001 0.000005 15.774800 4.637690 14.248800 12.994500 -0.242716 -4.980390 88.591700 5.210050 -74.851200 -5.348130 -0.000001 -0.000004 -73.808200 6.487280 -0.760290 -24.328900 0.000322 -0.000009 0.651098 0.558401 -49.422900 -22.291500 -0.000108 -0.000004 9.632030 5.486090 -5.982630 -2.192480 -6.469440 -0.000000 173.840000 2.199580 -36.608300 39.081100 -0.000007 -0.000012 0.423010 -0.504667 39.970300 40.985400 -0.000006 -0.000013 3.968710 8.372600 -63.430500 11.754300 -0.000000 0.000003 0.001693 0.131191 -11.256700 -2.192510 6.469440 -0.000001 173.194000 4.746340 -174.937000 -39.081100 -0.002282 -0.040193 0.115812 -0.131984 40.452200 -40.985400 0.000008 0.000006 -2.927790 4.651170 -44.241400 -11.754300 -0.000006 -0.000006 -0.098412 -0.440600 -34.954500
